# xmcd
#
# Track frame offsets: 
#        150
#        11769
#        25803
#        36506
#        45671
#        59548
#        70300
#        83016
#        91159
#        102343
#        114269
#        122779
#        133579
#        147104
#
# Disc length: 2121 seconds
#
# Revision: 2
# Processed by: cddbd v1.5.2PL0 Copyright (c) Steve Scherf et al.
# Submitted via: ExactAudioCopy v0.99pb5
#
DISCID=bc08470e
DTITLE=Os Cariocas - Pure Bossa Nova
DYEAR=2005
DGENRE=Bossa-Nova
TTITLE0=Ela e Carioca
TTITLE1=So Tinha de Ser Com Voce
TTITLE2=Tem Do
TTITLE3=Samba de Uma Nota So
TTITLE4=Preciso Aprender a Ser So
TTITLE5=Tim-Tim-por-Tim-Tim
TTITLE6=Samba da Pergunta
TTITLE7=Devager Com a Louca
TTITLE8=Pra que Chorar
TTITLE9=Inutil Paisagem
TTITLE10=So Danco Samba
TTITLE11=Amanhecendo
TTITLE12=Garota de Ipanema
TTITLE13=Desafinado
EXTD=
EXTT0=
EXTT1=
EXTT2=
EXTT3=
EXTT4=
EXTT5=
EXTT6=
EXTT7=
EXTT8=
EXTT9=
EXTT10=
EXTT11=
EXTT12=
EXTT13=
PLAYORDER=
